<?xml version="1.0" encoding="UTF-8"?><svg version="1.1" width="146px" height="24px" viewBox="0 0 146.0 24.0" xmlns="http://www.w3.org/2000/svg" xmlns:xlink="http://www.w3.org/1999/xlink"><defs><clipPath id="i0"><path d="M2560,0 L2560,5096 L0,5096 L0,0 L2560,0 Z"></path></clipPath><clipPath id="i1"><path d="M12.580819,0 C15.0053879,0 17.1336207,1.25612472 18.3459052,3.12694878 C18.9385776,2.80623608 19.612069,2.61915367 20.3394397,2.61915367 C22.2252155,2.61915367 23.7877155,3.8752784 24.2726293,5.5857461 C26.5894397,7.05567929 28.125,9.62138085 28.125,12.5345212 C28.125,13.5233853 27.9633621,14.4587973 27.6400862,15.3407572 C26.481681,18.4944321 23.4375,20.7394209 19.8814655,20.7394209 L19.8275862,20.7394209 C16.0829741,20.8463252 12.580819,22.0489978 9.67133621,24 L9.67133621,23.9198218 C9.67133621,21.5144766 10.4256466,19.2694878 11.7456897,17.4521158 L11.687,17.535 L11.5191004,17.695861 C10.3654516,18.7522631 8.83722415,19.4314261 7.16597577,19.5036281 L6.86961207,19.5100223 C3.07112069,19.5100223 0,16.4632517 0,12.6948775 C0,9.27394209 2.50538793,6.46770601 5.79202586,5.93318486 C6.22306034,2.59242762 9.10560345,0 12.580819,0 Z M17.9956897,7.45657016 C17.4299569,7.45657016 16.9719828,7.91091314 16.9719828,8.47216036 L16.9719828,14.3518931 C16.9719828,14.9131403 17.4299569,15.3674833 17.9956897,15.3674833 C18.5614224,15.3674833 19.0193966,14.9131403 19.0193966,14.3518931 L19.0193966,8.47216036 C19.0193966,7.91091314 18.5614224,7.45657016 17.9956897,7.45657016 Z M10.6681034,7.4298441 C10.1023707,7.4298441 9.64439655,7.88418708 9.64439655,8.4454343 L9.64439655,14.325167 C9.64439655,14.8864143 10.1023707,15.3407572 10.6681034,15.3407572 C11.2338362,15.3407572 11.6918103,14.8864143 11.6918103,14.325167 L11.6918103,8.4454343 C11.6918103,7.88418708 11.2338362,7.4298441 10.6681034,7.4298441 Z M14.3049569,9.40757238 C13.7392241,9.40757238 13.3081897,9.86191537 13.3081897,10.3964365 L13.3081897,13.0690423 C13.3081897,13.6035635 13.7661638,14.0579065 14.3049569,14.0579065 C14.84375,14.0579065 15.3286638,13.6035635 15.3286638,13.0690423 L15.3286638,10.3964365 C15.3286638,9.86191537 14.84375,9.40757238 14.3049569,9.40757238 Z M7.16594828,9.43429844 C6.62715517,9.43429844 6.22306034,9.88864143 6.22306034,10.4231626 L6.22306034,13.0423163 C6.22306034,13.5768374 6.62715517,14.0311804 7.16594828,14.0311804 C7.73168103,14.0311804 8.16271552,13.5768374 8.16271552,13.0423163 L8.16271552,10.4231626 C8.16271552,9.88864143 7.70474138,9.43429844 7.16594828,9.43429844 Z M21.6325431,9.43429844 C21.09375,9.43429844 20.6896552,9.88864143 20.6896552,10.4231626 L20.6896552,13.0423163 C20.6896552,13.5768374 21.09375,14.0311804 21.6325431,14.0311804 C22.1982759,14.0311804 22.6293103,13.5768374 22.6293103,13.0423163 L22.6293103,10.4231626 C22.6293103,9.88864143 22.1713362,9.43429844 21.6325431,9.43429844 Z"></path></clipPath><clipPath id="i2"><path d="M60.6855069,0.223529412 C60.9857444,0.18627451 61.2484522,0.260784314 61.5111601,0.37254902 C61.7738679,0.484313725 61.9615163,0.596078431 62.0365757,0.745098039 L62.2992835,1.15490196 L65.1515399,1.15490196 L64.4009461,3.20392157 L60.197621,3.20392157 L60.197621,4.20980392 L64.6261242,4.20980392 L64.6261242,16.727451 L61.2109226,16.727451 L61.2109226,14.6784314 L61.886457,14.6784314 L61.886457,6.25882353 L60.1600913,6.25882353 L60.1600913,17.1 L57.420424,17.1 L57.420424,3.24117647 L56.6323005,3.24117647 L56.6323005,1.19215686 L59.1843194,1.19215686 C59.4470272,0.782352941 59.6722053,0.521568627 59.8973834,0.409803922 C60.1225616,0.298039216 60.3852694,0.223529412 60.6855069,0.223529412 Z M54.4931082,0.447058824 L54.4555786,2.49607843 L52.5790941,2.53333333 L52.5790941,7.26470588 L54.6056973,7.26470588 L54.5681676,9.27647059 L52.5790941,9.27647059 L52.5790941,17.0254902 L49.6142487,17.0254902 L49.6142487,9.27647059 L42.9339641,9.27647059 L42.9339641,16.9882353 L39.931589,16.9509804 L39.931589,9.27647059 L37.8674561,9.27647059 L37.8674561,7.26470588 L39.8940593,7.26470588 L39.8940593,2.53333333 L37.9425155,2.53333333 L37.9425155,0.447058824 L54.4931082,0.447058824 Z M73.0703042,4.24705882 L70.443226,10.7666667 L73.1078339,16.8392157 L70.1054588,16.8392157 L69.0170978,14.2313725 L67.9662666,16.8392157 L65.0764805,16.8392157 L67.55344,10.8039216 L65.1890696,5.21568627 L68.0037962,5.21568627 L68.9795682,7.41372549 L70.2931073,4.24705882 L73.0703042,4.24705882 Z M15.7624693,0.37254902 L15.7624693,14.6039216 L17.0760084,14.6039216 L17.0760084,16.6901961 L12.9477427,16.6901961 L12.9477427,2.57058824 L10.2831348,2.57058824 L10.2831348,7.33921569 L12.5349161,7.33921569 L11.5216145,9.5 L10.2831348,9.5 L10.2831348,16.8019608 L7.4308784,16.8019608 L7.4308784,9.5372549 L4.46603298,9.5372549 L5.59192364,7.37647059 L7.39334871,7.37647059 L7.39334871,2.57058824 L5.70451271,2.57058824 L5.70451271,0.37254902 L15.7624693,0.37254902 Z M92.2104456,0.409803922 L92.2479753,2.53333333 L85.3425125,2.53333333 L85.3425125,11.8470588 L92.398094,11.8470588 L92.398094,13.9705882 L85.2674531,13.9705882 L85.2674531,16.727451 L82.3026077,16.727451 L82.3026077,13.9705882 L75.6223231,13.9705882 L75.6223231,11.8470588 L82.3026077,11.8470588 L82.3026077,2.53333333 L75.8099715,2.53333333 L75.8099715,0.409803922 L92.2104456,0.409803922 Z M3.94061733,5.81176471 L3.94061733,14.5294118 L5.36674551,14.5294118 L5.36674551,16.6529412 L1.08836098,16.6529412 L1.08836098,7.97254902 L0,7.97254902 L0,5.81176471 L3.94061733,5.81176471 Z M27.021376,0.335294118 L23.2308774,14.6039216 L35.3904966,14.6039216 L35.3904966,16.6529412 L19.665557,16.6529412 L23.4560555,2.45882353 L19.1026116,2.45882353 L19.1026116,0.335294118 L27.021376,0.335294118 Z M110.562463,7.93529412 L110.562463,16.5039216 L94.574816,16.5039216 L94.574816,7.93529412 L110.562463,7.93529412 Z M107.560088,10.0588235 L97.5771911,10.0588235 L97.5771911,14.3058824 L107.560088,14.3058824 L107.560088,10.0588235 Z M30.0612808,7.71176471 L35.4280263,12.5921569 L31.2247011,12.5921569 L25.8579556,7.71176471 L30.0612808,7.71176471 Z M78.5871685,3.50196078 L81.1391873,10.5431373 L78.286931,10.5431373 L75.7724418,3.50196078 L78.5871685,3.50196078 Z M91.6475002,3.50196078 L89.0954814,10.5431373 L86.243225,10.5431373 L88.8327736,3.50196078 L91.6475002,3.50196078 Z M49.576719,2.53333333 L42.8964344,2.53333333 L42.8964344,7.22745098 L49.576719,7.22745098 L49.576719,2.53333333 Z M101.405219,0 L98.552963,4.73137255 L107.597618,4.73137255 L107.034673,1.9 L109.961988,1.9 L110.862701,6.89215686 L94.574816,6.89215686 L94.574816,4.80588235 L97.8774286,0 L101.405219,0 Z M35.8033232,0.670588235 L30.1738699,5.96078431 L25.7828963,5.96078431 L31.9377652,0.670588235 L35.8033232,0.670588235 Z M68.75439,0.298039216 L68.5292119,1.08039216 L73.5581902,1.08039216 L72.619948,3.12941176 L68.0037962,3.12941176 L67.5159103,4.73137255 L64.7387133,4.73137255 L66.0522524,0.298039216 L68.75439,0.298039216 Z M2.7021376,0.18627451 C2.96484542,0.18627451 3.22755324,0.260784314 3.49026107,0.409803922 C3.75296889,0.521568627 3.97814702,0.745098039 4.12826578,1.00588235 C4.27838453,1.26666667 4.35344391,1.52745098 4.35344391,1.8254902 C4.35344391,2.12352941 4.27838453,2.38431373 4.12826578,2.64509804 C3.97814702,2.90588235 3.79049858,3.09215686 3.52779075,3.24117647 C3.26508293,3.39019608 3.00237511,3.46470588 2.7021376,3.46470588 C2.40190009,3.46470588 2.13919227,3.39019608 1.87648444,3.24117647 C1.61377662,3.09215686 1.42612818,2.86862745 1.23847973,2.64509804 C1.08836098,2.42156863 1.0133016,2.12352941 1.0133016,1.8254902 C1.0133016,1.52745098 1.08836098,1.26666667 1.23847973,1.00588235 C1.38859849,0.745098039 1.61377662,0.558823529 1.87648444,0.409803922 C2.17672195,0.260784314 2.43942978,0.18627451 2.7021376,0.18627451 Z"></path></clipPath></defs><g transform="translate(-316.0 -23.0)"><g clip-path="url(#i0)"><g transform="translate(316.25 23.0)"><g clip-path="url(#i1)"><polygon points="0,0 28.125,0 28.125,24 0,24 0,0" stroke="none" fill="#2A80E2"></polygon></g><g transform="translate(34.12499999999989 3.449999999999818)"><g clip-path="url(#i2)"><polygon points="0,0 110.862701,0 110.862701,17.1 0,17.1 0,0" stroke="none" fill="#333333"></polygon></g></g></g></g></g></svg>